<mxfile host="app.diagrams.net" modified="2024-03-15T18:04:41.369Z" agent="Mozilla/5.0 (Windows NT 10.0; Win64; x64) AppleWebKit/537.36 (KHTML, like Gecko) Chrome/122.0.0.0 Safari/537.36" etag="VDG5QkYJalzOQqjOL1_w" version="24.0.7" type="device">
  <diagram name="Страница — 1" id="MfLwV-CGnsRzEHnER3xG">
    <mxGraphModel dx="955" dy="517" grid="1" gridSize="10" guides="1" tooltips="1" connect="1" arrows="1" fold="1" page="1" pageScale="1" pageWidth="827" pageHeight="1169" math="0" shadow="0">
      <root>
        <mxCell id="0" />
        <mxCell id="1" parent="0" />
        <mxCell id="oI6qRSULSWpvjauALtCF-21" value="" style="edgeStyle=orthogonalEdgeStyle;rounded=0;orthogonalLoop=1;jettySize=auto;html=1;endArrow=ERzeroToOne;endFill=0;startArrow=ERmandOne;startFill=0;" edge="1" parent="1" source="oI6qRSULSWpvjauALtCF-2" target="oI6qRSULSWpvjauALtCF-10">
          <mxGeometry relative="1" as="geometry" />
        </mxCell>
        <mxCell id="oI6qRSULSWpvjauALtCF-2" value="Игра" style="whiteSpace=wrap;html=1;align=center;" vertex="1" parent="1">
          <mxGeometry x="300" y="240" width="100" height="40" as="geometry" />
        </mxCell>
        <mxCell id="oI6qRSULSWpvjauALtCF-3" value="Цена" style="whiteSpace=wrap;html=1;align=center;" vertex="1" parent="1">
          <mxGeometry x="480" y="240" width="100" height="40" as="geometry" />
        </mxCell>
        <mxCell id="oI6qRSULSWpvjauALtCF-6" value="Скидка" style="whiteSpace=wrap;html=1;align=center;" vertex="1" parent="1">
          <mxGeometry x="670" y="170" width="100" height="40" as="geometry" />
        </mxCell>
        <mxCell id="oI6qRSULSWpvjauALtCF-7" value="Цена до скидки" style="whiteSpace=wrap;html=1;align=center;" vertex="1" parent="1">
          <mxGeometry x="670" y="290" width="100" height="40" as="geometry" />
        </mxCell>
        <mxCell id="oI6qRSULSWpvjauALtCF-20" style="edgeStyle=orthogonalEdgeStyle;rounded=0;orthogonalLoop=1;jettySize=auto;html=1;entryX=0.5;entryY=0;entryDx=0;entryDy=0;startArrow=ERoneToMany;startFill=0;strokeColor=default;endArrow=ERzeroToMany;endFill=0;" edge="1" parent="1" source="oI6qRSULSWpvjauALtCF-8" target="oI6qRSULSWpvjauALtCF-2">
          <mxGeometry relative="1" as="geometry" />
        </mxCell>
        <mxCell id="oI6qRSULSWpvjauALtCF-8" value="Жанры" style="whiteSpace=wrap;html=1;align=center;" vertex="1" parent="1">
          <mxGeometry x="300" y="120" width="100" height="30" as="geometry" />
        </mxCell>
        <mxCell id="oI6qRSULSWpvjauALtCF-27" style="edgeStyle=orthogonalEdgeStyle;rounded=0;orthogonalLoop=1;jettySize=auto;html=1;entryX=0;entryY=0.5;entryDx=0;entryDy=0;startArrow=ERmandOne;startFill=0;endArrow=ERzeroToMany;endFill=0;" edge="1" parent="1" source="oI6qRSULSWpvjauALtCF-9" target="oI6qRSULSWpvjauALtCF-2">
          <mxGeometry relative="1" as="geometry" />
        </mxCell>
        <mxCell id="oI6qRSULSWpvjauALtCF-9" value="Издатель" style="whiteSpace=wrap;html=1;align=center;" vertex="1" parent="1">
          <mxGeometry x="120" y="240" width="100" height="40" as="geometry" />
        </mxCell>
        <mxCell id="oI6qRSULSWpvjauALtCF-10" value="Оценка" style="whiteSpace=wrap;html=1;align=center;" vertex="1" parent="1">
          <mxGeometry x="300" y="320" width="100" height="40" as="geometry" />
        </mxCell>
        <mxCell id="oI6qRSULSWpvjauALtCF-24" style="edgeStyle=orthogonalEdgeStyle;rounded=0;orthogonalLoop=1;jettySize=auto;html=1;exitX=1;exitY=0.5;exitDx=0;exitDy=0;entryX=0.25;entryY=1;entryDx=0;entryDy=0;endArrow=ERzeroToMany;endFill=0;startArrow=ERzeroToOne;startFill=0;" edge="1" parent="1" source="oI6qRSULSWpvjauALtCF-11" target="oI6qRSULSWpvjauALtCF-10">
          <mxGeometry relative="1" as="geometry" />
        </mxCell>
        <mxCell id="oI6qRSULSWpvjauALtCF-11" value="Пресса" style="whiteSpace=wrap;html=1;align=center;" vertex="1" parent="1">
          <mxGeometry x="200" y="400" width="100" height="40" as="geometry" />
        </mxCell>
        <mxCell id="oI6qRSULSWpvjauALtCF-12" value="Отзывы игроков" style="whiteSpace=wrap;html=1;align=center;" vertex="1" parent="1">
          <mxGeometry x="400" y="400" width="100" height="40" as="geometry" />
        </mxCell>
        <mxCell id="oI6qRSULSWpvjauALtCF-15" value="" style="edgeStyle=entityRelationEdgeStyle;fontSize=12;html=1;endArrow=ERzeroToMany;startArrow=ERmandOne;rounded=0;entryX=1;entryY=0.5;entryDx=0;entryDy=0;exitX=0;exitY=0.5;exitDx=0;exitDy=0;" edge="1" parent="1" source="oI6qRSULSWpvjauALtCF-3" target="oI6qRSULSWpvjauALtCF-2">
          <mxGeometry width="100" height="100" relative="1" as="geometry">
            <mxPoint x="380" y="380" as="sourcePoint" />
            <mxPoint x="480" y="280" as="targetPoint" />
          </mxGeometry>
        </mxCell>
        <mxCell id="oI6qRSULSWpvjauALtCF-16" value="" style="edgeStyle=entityRelationEdgeStyle;fontSize=12;html=1;endArrow=ERzeroToMany;startArrow=ERmandOne;rounded=0;entryX=1;entryY=0.75;entryDx=0;entryDy=0;exitX=0;exitY=0.5;exitDx=0;exitDy=0;" edge="1" parent="1" source="oI6qRSULSWpvjauALtCF-7" target="oI6qRSULSWpvjauALtCF-3">
          <mxGeometry width="100" height="100" relative="1" as="geometry">
            <mxPoint x="820" y="280" as="sourcePoint" />
            <mxPoint x="620" y="309.76" as="targetPoint" />
            <Array as="points">
              <mxPoint x="730" y="300" />
              <mxPoint x="720" y="300" />
              <mxPoint x="730" y="300" />
              <mxPoint x="730" y="320" />
            </Array>
          </mxGeometry>
        </mxCell>
        <mxCell id="oI6qRSULSWpvjauALtCF-17" value="" style="edgeStyle=entityRelationEdgeStyle;fontSize=12;html=1;endArrow=ERzeroToMany;startArrow=ERmandOne;rounded=0;exitX=0;exitY=0.5;exitDx=0;exitDy=0;entryX=1;entryY=0.25;entryDx=0;entryDy=0;" edge="1" parent="1" source="oI6qRSULSWpvjauALtCF-6" target="oI6qRSULSWpvjauALtCF-3">
          <mxGeometry width="100" height="100" relative="1" as="geometry">
            <mxPoint x="631" y="212.92000000000002" as="sourcePoint" />
            <mxPoint x="600" y="280.00000000000006" as="targetPoint" />
            <Array as="points">
              <mxPoint x="621" y="262.92" />
              <mxPoint x="621" y="242.92000000000002" />
              <mxPoint x="631" y="272.92" />
              <mxPoint x="631" y="262.92" />
            </Array>
          </mxGeometry>
        </mxCell>
        <mxCell id="oI6qRSULSWpvjauALtCF-26" style="edgeStyle=orthogonalEdgeStyle;rounded=0;orthogonalLoop=1;jettySize=auto;html=1;entryX=0.692;entryY=1.107;entryDx=0;entryDy=0;entryPerimeter=0;exitX=0;exitY=0.5;exitDx=0;exitDy=0;endArrow=ERzeroToMany;endFill=0;startArrow=ERzeroToOne;startFill=0;" edge="1" parent="1">
          <mxGeometry relative="1" as="geometry">
            <mxPoint x="400" y="415.72" as="sourcePoint" />
            <mxPoint x="369.19999999999993" y="360" as="targetPoint" />
          </mxGeometry>
        </mxCell>
      </root>
    </mxGraphModel>
  </diagram>
</mxfile>
